<svg width="63" height="56" viewBox="0 0 63 56" fill="none" xmlns="http://www.w3.org/2000/svg">
<path fill-rule="evenodd" clip-rule="evenodd" d="M57.4365 22.8926C56.476 22.8961 55.5403 23.1971 54.7578 23.7541C53.9754 24.3111 53.3847 25.0967 53.067 26.0031H43.7547C43.7025 26.0006 43.6503 26.0058 43.5997 26.0186L38.7034 17.5128C38.7441 17.4698 38.7805 17.4228 38.8119 17.3726L43.5067 9.30216C43.7918 9.36452 44.0827 9.39569 44.3744 9.39512C45.3972 9.39039 46.3901 9.04982 47.2004 8.42578C48.0107 7.80175 48.5936 6.9288 48.8595 5.94118C49.1253 4.95357 49.0593 3.90597 48.6717 2.95949C48.2841 2.01301 47.5963 1.22007 46.7141 0.702597C46.0052 0.284936 45.1973 0.0650288 44.3744 0.0657713C43.5614 0.0671768 42.7629 0.281817 42.0587 0.688293C41.3545 1.09477 40.7692 1.67885 40.3613 2.38222C39.879 3.21615 39.6649 4.17825 39.7481 5.13801C39.8312 6.09777 40.2076 7.00871 40.8262 7.74725L36.1313 15.8177C36.1002 15.8514 36.0835 15.8958 36.0848 15.9416H26.1062C26.0976 15.898 26.0819 15.8562 26.0597 15.8177L21.3803 7.74725C21.8214 7.20902 22.1435 6.58354 22.3255 5.91191C22.5068 5.22209 22.5275 4.49984 22.3858 3.80078C22.2442 3.10172 21.9441 2.44447 21.5085 1.87962C21.073 1.31477 20.5137 0.857383 19.8736 0.542651C19.2335 0.22792 18.5298 0.0642416 17.8165 0.0642109C16.9937 0.0634683 16.1857 0.283376 15.4768 0.701036C14.5929 1.21881 13.9039 2.01307 13.5162 2.96126C13.1285 3.90945 13.0636 4.95889 13.3315 5.94764C13.5994 6.93639 14.1852 7.80949 14.9986 8.43226C15.8119 9.05503 16.8076 9.39283 17.832 9.39356C18.1187 9.39413 18.4045 9.36295 18.6842 9.3006L23.3791 17.371C23.4068 17.4322 23.4494 17.4855 23.5031 17.526L18.6068 26.0178C18.551 26.0043 18.4936 25.9991 18.4363 26.0023H9.13949C8.7727 24.9649 8.05096 24.0905 7.10183 23.5337C6.15271 22.977 5.03731 22.7736 3.95278 22.9597C2.86825 23.1458 1.88441 23.7093 1.17516 24.5506C0.465907 25.3919 0.0769043 26.4569 0.0769043 27.5572C0.0769043 28.6576 0.465907 29.7226 1.17516 30.5639C1.88441 31.4052 2.86825 31.9687 3.95278 32.1547C5.03731 32.3408 6.15271 32.1375 7.10183 31.5807C8.05096 31.024 8.7727 30.1496 9.13949 29.1121H18.4363C18.4936 29.1154 18.551 29.1102 18.6068 29.0966L23.5031 37.587C23.449 37.627 23.4063 37.6804 23.3791 37.7419L18.6842 45.8278C18.4045 45.7652 18.1187 45.7338 17.832 45.7341C16.808 45.7358 15.813 46.0741 15.0002 46.6971C14.1875 47.32 13.6021 48.1929 13.3344 49.1813C13.0666 50.1696 13.1313 51.2186 13.5184 52.1666C13.9056 53.1146 14.5937 53.909 15.4768 54.4274C16.1857 54.845 16.9937 55.0649 17.8165 55.0642C18.531 55.0635 19.2358 54.8989 19.8766 54.5829C20.5174 54.267 21.0772 53.8082 21.5127 53.2419C21.9483 52.6755 22.2481 52.0168 22.389 51.3164C22.5299 50.6159 22.5082 49.8925 22.3255 49.2018C22.1476 48.5303 21.8191 47.9082 21.3648 47.3827L26.0597 39.3123C26.082 39.2736 26.0977 39.2314 26.1062 39.1875H36.0848C36.0932 39.2314 36.1089 39.2736 36.1313 39.3123L40.8262 47.3827C40.3709 47.9053 40.0469 48.5289 39.881 49.2018C39.7189 49.7948 39.6779 50.4144 39.7604 51.0236C39.8429 51.6329 40.0473 52.2192 40.3613 52.7478C40.7692 53.4511 41.3545 54.0352 42.0587 54.4417C42.7629 54.8481 43.5614 55.0628 44.3744 55.0642C45.1973 55.0649 46.0052 54.845 46.7141 54.4274C47.5967 53.9101 48.2849 53.1171 48.6727 52.1705C49.0606 51.2238 49.1267 50.176 48.8608 49.1881C48.5949 48.2003 48.0118 47.3271 47.2012 46.703C46.3906 46.079 45.3974 45.7385 44.3744 45.7341C44.0827 45.7338 43.7917 45.7652 43.5067 45.8278L38.8119 37.7419C38.7807 37.6915 38.7443 37.6445 38.7034 37.6017L43.5997 29.0959C43.6503 29.1087 43.7025 29.1139 43.7547 29.1114H53.067C53.3546 29.9128 53.8569 30.6198 54.519 31.1553C55.1811 31.6907 55.9775 32.034 56.8213 32.1477C57.6652 32.2614 58.5241 32.1412 59.3043 31.8C60.0845 31.4589 60.756 30.9101 61.2455 30.2134C61.735 29.5167 62.0238 28.6988 62.0803 27.8492C62.1367 26.9996 61.9587 26.1508 61.5657 25.3954C61.1727 24.6401 60.5797 24.0071 59.8516 23.5658C59.1234 23.1244 58.288 22.8915 57.4365 22.8926ZM43.0264 3.95262C43.1633 3.71648 43.3599 3.52055 43.5966 3.38454C43.8332 3.24854 44.1015 3.17727 44.3744 3.17788C44.6458 3.18144 44.9115 3.25577 45.1453 3.39353C45.3791 3.53129 45.5729 3.72769 45.7075 3.96333C45.8421 4.19896 45.9129 4.46567 45.9128 4.73704C45.9127 5.00842 45.8418 5.27505 45.707 5.5106C45.4936 5.85962 45.1536 6.1127 44.758 6.21693C44.3624 6.32117 43.9419 6.26852 43.5842 6.06997C43.2328 5.86009 42.9776 5.52087 42.8734 5.12507C42.7691 4.72927 42.824 4.30839 43.0264 3.95262ZM18.6068 6.06763C18.2491 6.26618 17.8285 6.31885 17.4329 6.21462C17.0374 6.11038 16.6974 5.85731 16.484 5.50828C16.3492 5.27274 16.2783 5.00608 16.2782 4.7347C16.2781 4.46333 16.3488 4.19665 16.4834 3.96101C16.618 3.72537 16.8118 3.52895 17.0457 3.39119C17.2795 3.25343 17.5452 3.1791 17.8165 3.17554C18.1592 3.1718 18.4934 3.28177 18.7669 3.48822C19.0404 3.69467 19.2378 3.98596 19.3281 4.31653C19.4185 4.64709 19.3966 4.99827 19.2661 5.31512C19.1356 5.63197 18.9037 5.8966 18.6068 6.06763ZM4.75449 29.1168C4.44673 29.1178 4.14558 29.0276 3.88916 28.8574C3.63275 28.6872 3.43261 28.4447 3.31409 28.1607C3.19557 27.8767 3.164 27.5639 3.22339 27.2619C3.28277 26.9599 3.43043 26.6823 3.64767 26.4643C3.8649 26.2463 4.14195 26.0977 4.44372 26.0373C4.74548 25.9768 5.0584 26.0073 5.34284 26.1248C5.62727 26.2424 5.87043 26.4417 6.04153 26.6975C6.21262 26.9533 6.30395 27.2541 6.30396 27.5619C6.30355 27.9732 6.14034 28.3676 5.85 28.659C5.55966 28.9504 5.1658 29.1149 4.75449 29.1168ZM19.1646 51.182C18.9514 51.5313 18.6115 51.7847 18.2158 51.8891C17.8202 51.9935 17.3995 51.9408 17.0418 51.7421C16.8651 51.639 16.7105 51.5021 16.5868 51.3391C16.4631 51.1762 16.3728 50.9905 16.321 50.7926C16.2692 50.5947 16.2569 50.3885 16.2849 50.1859C16.3128 49.9832 16.3805 49.7881 16.484 49.6116C16.6239 49.3792 16.8216 49.1869 17.0578 49.0535C17.294 48.92 17.5607 48.8499 17.832 48.8501C18.1049 48.8484 18.3733 48.9193 18.6098 49.0555C18.8463 49.1917 19.0423 49.3883 19.1779 49.6251C19.3134 49.8619 19.3837 50.1305 19.3813 50.4034C19.379 50.6763 19.3042 50.9437 19.1646 51.1781V51.182ZM43.5842 49.0523C43.9414 48.8515 44.3627 48.7977 44.7589 48.9021C45.1551 49.0065 45.4951 49.261 45.707 49.6116C45.8105 49.7881 45.8781 49.9832 45.9061 50.1859C45.9341 50.3885 45.9218 50.5947 45.87 50.7926C45.8182 50.9905 45.7278 51.1762 45.6041 51.3391C45.4805 51.5021 45.3259 51.639 45.1492 51.7421C44.9158 51.8844 44.6478 51.9597 44.3744 51.9598C44.1014 51.9609 43.8329 51.8898 43.5962 51.7538C43.3595 51.6177 43.1629 51.4215 43.0264 51.1851C42.8226 50.8265 42.7669 50.4025 42.8711 50.0034C42.9753 49.6043 43.2312 49.2616 43.5842 49.0484V49.0523ZM36.0073 36.0832H26.1992L21.3028 27.5611L26.1992 19.0553H36.0073L40.9036 27.5611L36.0073 36.0832ZM57.4365 29.1168C57.1287 29.1178 56.8276 29.0276 56.5712 28.8574C56.3147 28.6872 56.1146 28.4447 55.9961 28.1607C55.8776 27.8767 55.846 27.5639 55.9054 27.2619C55.9648 26.9599 56.1124 26.6823 56.3297 26.4643C56.5469 26.2463 56.8239 26.0977 57.1257 26.0373C57.4275 25.9768 57.7404 26.0073 58.0248 26.1248C58.3093 26.2424 58.5524 26.4417 58.7235 26.6975C58.8946 26.9533 58.9859 27.2541 58.986 27.5619C58.9855 27.9732 58.8223 28.3676 58.532 28.659C58.2417 28.9504 57.8478 29.1149 57.4365 29.1168Z" fill="#E6DC7F"/>
</svg>
